<svg width="43" height="38" viewBox="0 0 43 38" fill="none" xmlns="http://www.w3.org/2000/svg">
<rect x="0.5" y="0.5" width="42" height="37" rx="9.5" stroke="#FBFBFF"/>
<path d="M9.75 8.6875C9.75 8.43886 9.84877 8.2004 10.0246 8.02459C10.2004 7.84877 10.4389 7.75 10.6875 7.75H31.3125C31.5611 7.75 31.7996 7.84877 31.9754 8.02459C32.1512 8.2004 32.25 8.43886 32.25 8.6875C32.25 8.93614 32.1512 9.1746 31.9754 9.35041C31.7996 9.52623 31.5611 9.625 31.3125 9.625H10.6875C10.4389 9.625 10.2004 9.52623 10.0246 9.35041C9.84877 9.1746 9.75 8.93614 9.75 8.6875ZM9.75 18.0625C9.75 17.8139 9.84877 17.5754 10.0246 17.3996C10.2004 17.2238 10.4389 17.125 10.6875 17.125H31.3125C31.5611 17.125 31.7996 17.2238 31.9754 17.3996C32.1512 17.5754 32.25 17.8139 32.25 18.0625C32.25 18.3111 32.1512 18.5496 31.9754 18.7254C31.7996 18.9012 31.5611 19 31.3125 19H10.6875C10.4389 19 10.2004 18.9012 10.0246 18.7254C9.84877 18.5496 9.75 18.3111 9.75 18.0625ZM10.6875 26.5C10.4389 26.5 10.2004 26.5988 10.0246 26.7746C9.84877 26.9504 9.75 27.1889 9.75 27.4375C9.75 27.6861 9.84877 27.9246 10.0246 28.1004C10.2004 28.2762 10.4389 28.375 10.6875 28.375H31.3125C31.5611 28.375 31.7996 28.2762 31.9754 28.1004C32.1512 27.9246 32.25 27.6861 32.25 27.4375C32.25 27.1889 32.1512 26.9504 31.9754 26.7746C31.7996 26.5988 31.5611 26.5 31.3125 26.5H10.6875Z" fill="#FBFBFF"/>
</svg>
